{
	"asset":{
		"generator":"Khronos glTF Blender I/O v4.4.55",
		"version":"2.0"
	},
	"scene":0,
	"scenes":[
		{
			"name":"Scene",
			"nodes":[
				15
			]
		}
	],
	"nodes":[
		{
			"name":"26",
			"rotation":[
				5.7042779388893905e-09,
				0,
				-0.0001400127075612545,
				1
			],
			"scale":[
				0.9999999403953552,
				0.9999999403953552,
				1
			],
			"translation":[
				-0.12116039544343948,
				-0.8410383462905884,
				-6.725223755665866e-08
			]
		},
		{
			"name":"25",
			"rotation":[
				5.7042779388893905e-09,
				0,
				-0.0001400127075612545,
				1
			],
			"scale":[
				0.9999999403953552,
				0.9999999403953552,
				1
			],
			"translation":[
				0.11814472824335098,
				-0.8430860638618469,
				-6.725223755665866e-08
			]
		},
		{
			"name":"28",
			"rotation":[
				-1.5304914668945457e-08,
				4.336809206929901e-19,
				0.0003756656078621745,
				0.9999999403953552
			],
			"scale":[
				0.9999999403953552,
				0.9999999403953552,
				1
			],
			"translation":[
				-0.12043662369251251,
				-1.66641366481781,
				-3.776512969011492e-08
			]
		},
		{
			"name":"27",
			"rotation":[
				-1.5304914668945457e-08,
				4.336809206929901e-19,
				0.00037566557875834405,
				0.9999999403953552
			],
			"scale":[
				0.9999999403953552,
				0.9999999403953552,
				1
			],
			"translation":[
				0.11886849999427795,
				-1.6684614419937134,
				-3.776512969011492e-08
			]
		},
		{
			"name":"12",
			"scale":[
				1,
				0.9999999403953552,
				1
			],
			"translation":[
				-0.287443608045578,
				1.0556492805480957,
				1.2935036375338882e-10
			]
		},
		{
			"name":"11",
			"scale":[
				1,
				0.9999999403953552,
				1
			],
			"translation":[
				0.28873172402381897,
				1.056704044342041,
				7.761021686425451e-11
			]
		},
		{
			"name":"14",
			"scale":[
				1,
				0.9999999403953552,
				1
			],
			"translation":[
				-0.8656536936759949,
				1.0573620796203613,
				1.663076065749891e-10
			]
		},
		{
			"name":"13",
			"scale":[
				1,
				0.9999999403953552,
				1
			],
			"translation":[
				0.8649399280548096,
				1.0573620796203613,
				9.978456949610859e-11
			]
		},
		{
			"name":"16",
			"translation":[
				-1.443036437034607,
				1.0560864210128784,
				3.1044086745701804e-10
			]
		},
		{
			"name":"15",
			"translation":[
				1.4417040348052979,
				1.0560864210128784,
				3.1044086745701804e-10
			]
		},
		{
			"name":"0",
			"translation":[
				0,
				1.3125332593917847,
				-0.005190655589103699
			]
		},
		{
			"name":"24",
			"translation":[
				-0.15115943551063538,
				0.017970770597457886,
				1.0348028683937471e-10
			]
		},
		{
			"name":"23",
			"translation":[
				0.15138792991638184,
				0.017970770597457886,
				1.0348028683937471e-10
			]
		},
		{
			"mesh":0,
			"name":"Marker",
			"skin":0
		},
		{
			"mesh":1,
			"name":"Stick Man",
			"skin":0
		},
		{
			"children":[
				13,
				14,
				0,
				1,
				2,
				3,
				4,
				5,
				6,
				7,
				8,
				9,
				10,
				11,
				12
			],
			"name":"Armature"
		}
	],
	"materials":[
		{
			"doubleSided":true,
			"name":"\u6750\u8d28",
			"pbrMetallicRoughness":{
				"baseColorFactor":[
					0.004775917157530785,
					0.0069934166967868805,
					0.8000937700271606,
					1
				],
				"metallicFactor":0.09000000357627869,
				"roughnessFactor":0.012000000104308128
			}
		},
		{
			"doubleSided":true,
			"name":"default",
			"pbrMetallicRoughness":{
				"baseColorFactor":[
					0.9181969165802002,
					0.9169202446937561,
					1,
					1
				],
				"metallicFactor":0.00906344410032034,
				"roughnessFactor":0.012084592133760452
			}
		}
	],
	"meshes":[
		{
			"name":"\u68f1\u89d2\u7403",
			"primitives":[
				{
					"attributes":{
						"POSITION":0,
						"NORMAL":1,
						"TEXCOORD_0":2,
						"JOINTS_0":3,
						"WEIGHTS_0":4
					},
					"indices":5,
					"material":0
				}
			]
		},
		{
			"name":"connection",
			"primitives":[
				{
					"attributes":{
						"POSITION":7,
						"NORMAL":8,
						"TEXCOORD_0":9,
						"JOINTS_0":12,
						"WEIGHTS_0":13
					},
					"indices":14,
					"material":1
				}
			]
		}
	],
	"skins":[
		{
			"inverseBindMatrices":6,
			"joints":[
				0,
				1,
				2,
				3,
				4,
				5,
				6,
				7,
				8,
				9,
				10,
				11,
				12
			],
			"name":"Armature"
		}
	],
	"accessors":[
		{
			"bufferView":0,
			"componentType":5126,
			"count":960,
			"max":[
				1.4791815280914307,
				1.3911685943603516,
				0.07344230264425278
			],
			"min":[
				-1.4799505472183228,
				-1.7053508758544922,
				-0.08382783085107803
			],
			"type":"VEC3"
		},
		{
			"bufferView":1,
			"componentType":5126,
			"count":960,
			"type":"VEC3"
		},
		{
			"bufferView":2,
			"componentType":5126,
			"count":960,
			"type":"VEC2"
		},
		{
			"bufferView":3,
			"componentType":5121,
			"count":960,
			"type":"VEC4"
		},
		{
			"bufferView":4,
			"componentType":5126,
			"count":960,
			"type":"VEC4"
		},
		{
			"bufferView":5,
			"componentType":5123,
			"count":960,
			"type":"SCALAR"
		},
		{
			"bufferView":6,
			"componentType":5126,
			"count":13,
			"type":"MAT4"
		},
		{
			"bufferView":7,
			"componentType":5126,
			"count":928,
			"max":[
				1.4113847017288208,
				1.0757596492767334,
				0.02158801443874836
			],
			"min":[
				-1.410385251045227,
				-1.6699929237365723,
				-0.021588053554296494
			],
			"type":"VEC3"
		},
		{
			"bufferView":8,
			"componentType":5126,
			"count":928,
			"type":"VEC3"
		},
		{
			"bufferView":9,
			"componentType":5126,
			"count":928,
			"type":"VEC2"
		},
		{
			"bufferView":10,
			"componentType":5121,
			"count":928,
			"normalized":true,
			"type":"VEC4"
		},
		{
			"bufferView":11,
			"componentType":5123,
			"count":928,
			"normalized":true,
			"type":"VEC4"
		},
		{
			"bufferView":12,
			"componentType":5121,
			"count":928,
			"type":"VEC4"
		},
		{
			"bufferView":13,
			"componentType":5126,
			"count":928,
			"type":"VEC4"
		},
		{
			"bufferView":14,
			"componentType":5123,
			"count":1512,
			"type":"SCALAR"
		}
	],
	"bufferViews":[
		{
			"buffer":0,
			"byteLength":11520,
			"byteOffset":0,
			"target":34962
		},
		{
			"buffer":0,
			"byteLength":11520,
			"byteOffset":11520,
			"target":34962
		},
		{
			"buffer":0,
			"byteLength":7680,
			"byteOffset":23040,
			"target":34962
		},
		{
			"buffer":0,
			"byteLength":3840,
			"byteOffset":30720,
			"target":34962
		},
		{
			"buffer":0,
			"byteLength":15360,
			"byteOffset":34560,
			"target":34962
		},
		{
			"buffer":0,
			"byteLength":1920,
			"byteOffset":49920,
			"target":34963
		},
		{
			"buffer":0,
			"byteLength":832,
			"byteOffset":51840
		},
		{
			"buffer":0,
			"byteLength":11136,
			"byteOffset":52672,
			"target":34962
		},
		{
			"buffer":0,
			"byteLength":11136,
			"byteOffset":63808,
			"target":34962
		},
		{
			"buffer":0,
			"byteLength":7424,
			"byteOffset":74944,
			"target":34962
		},
		{
			"buffer":0,
			"byteLength":3712,
			"byteOffset":82368,
			"target":34962
		},
		{
			"buffer":0,
			"byteLength":7424,
			"byteOffset":86080,
			"target":34962
		},
		{
			"buffer":0,
			"byteLength":3712,
			"byteOffset":93504,
			"target":34962
		},
		{
			"buffer":0,
			"byteLength":14848,
			"byteOffset":97216,
			"target":34962
		},
		{
			"buffer":0,
			"byteLength":3024,
			"byteOffset":112064,
			"target":34963
		}
	],
	"buffers":[
		{
			"byteLength":115088,
			"uri":"data:application/octet-stream;base64,"
		}
	]
}
